<svg width="398" height="276" viewBox="0 0 398 276" fill="none" xmlns="http://www.w3.org/2000/svg">
<path d="M130.995 368.92C61.6624 368.92 5.45579 312.635 5.45579 243.202C5.45579 173.769 61.6624 117.484 130.995 117.484C200.328 117.484 256.535 173.769 256.535 243.202C256.535 312.635 200.328 368.92 130.995 368.92Z" stroke="#E5E5E5"/>
<path d="M144.263 373.902C66.6865 373.902 3.79748 310.925 3.79748 233.237C3.79748 155.549 66.6865 92.5723 144.263 92.5723C221.839 92.5723 284.728 155.549 284.728 233.237C284.728 310.925 221.839 373.902 144.263 373.902Z" stroke="#E5E5E5"/>
<path d="M155.042 378.885C70.1388 378.885 1.30974 309.959 1.30975 224.934C1.30975 139.909 70.1388 70.9834 155.042 70.9834C239.946 70.9834 308.775 139.909 308.775 224.934C308.775 309.959 239.946 378.885 155.042 378.885Z" stroke="#E5E5E5"/>
<path d="M170.798 382.206C79.4827 382.206 5.4562 308.076 5.4562 216.63C5.4562 125.184 79.4827 51.0537 170.798 51.0537C262.112 51.0537 336.139 125.184 336.139 216.63C336.139 308.076 262.112 382.206 170.798 382.206Z" stroke="#E5E5E5"/>
<path d="M186.138 385.527C88.6404 385.527 9.60204 306.378 9.60204 208.741C9.60205 111.104 88.6404 31.9551 186.138 31.9551C283.635 31.9551 362.673 111.104 362.673 208.741C362.673 306.378 283.635 385.527 186.138 385.527Z" stroke="#E5E5E5"/>
<path d="M203.551 389.68C96.4366 389.68 9.60204 302.723 9.60204 195.456C9.60205 88.1879 96.4366 1.23143 203.551 1.23144C310.665 1.23144 397.5 88.1879 397.5 195.456C397.5 302.723 310.665 389.68 203.551 389.68Z" stroke="#E5E5E5"/>
</svg>
